<svg preserveAspectRatio="none" overflow="visible" style="display: block;" width="66" height="66" viewBox="0 0 66 66" fill="none" xmlns="http://www.w3.org/2000/svg">
<g id="bxs:layer">
<path id="Vector" d="M59.0798 19.5936L34.2693 5.84356C33.8619 5.61821 33.4039 5.5 32.9383 5.5C32.4727 5.5 32.0148 5.61821 31.6073 5.84356L6.91784 19.4836C6.48893 19.7211 6.13132 20.0689 5.88203 20.4911C5.63274 20.9132 5.50085 21.3944 5.5 21.8846C5.49916 22.3749 5.6294 22.8565 5.87724 23.2795C6.12508 23.7025 6.4815 24.0516 6.90959 24.2906L31.7201 38.1506C32.129 38.3788 32.5893 38.4988 33.0576 38.4993C33.5259 38.4998 33.9865 38.3807 34.3958 38.1533L59.0853 24.4033C59.5142 24.1648 59.8715 23.8159 60.12 23.3927C60.3686 22.9695 60.4993 22.4876 60.4988 21.9968C60.4982 21.5061 60.3663 21.0244 60.1168 20.6018C59.8673 20.1792 59.5093 19.8311 59.0798 19.5936Z" fill="#146EF5"/>
<path id="Vector_2" d="M32.9986 43.6039L9.58236 30.5964L6.91211 35.4034L31.6621 49.1534C32.0705 49.3803 32.53 49.4993 32.9972 49.4993C33.4644 49.4993 33.9239 49.3803 34.3324 49.1534L59.0824 35.4034L56.4121 30.5964L32.9986 43.6039Z" fill="#146EF5"/>
<path id="Vector_3" d="M32.9986 54.6039L9.58236 41.5964L6.91211 46.4034L31.6621 60.1534C32.0705 60.3803 32.53 60.4993 32.9972 60.4993C33.4644 60.4993 33.9239 60.3803 34.3324 60.1534L59.0824 46.4034L56.4121 41.5964L32.9986 54.6039Z" fill="#146EF5"/>
</g>
</svg>
